<svg width="128" height="128" viewBox="0 0 128 128" fill="none" xmlns="http://www.w3.org/2000/svg">
  <defs>
    <linearGradient id="bgD" x1="0" y1="0" x2="128" y2="128" gradientUnits="userSpaceOnUse">
      <stop offset="0%" stop-color="#110D1F"></stop>
      <stop offset="100%" stop-color="#0D0918"></stop>
    </linearGradient>
    <linearGradient id="accentD" x1="18" y1="64" x2="110" y2="64" gradientUnits="userSpaceOnUse">
      <stop offset="0%" stop-color="#6C63FF"></stop>
      <stop offset="50%" stop-color="#FF6BA8"></stop>
      <stop offset="100%" stop-color="#6C63FF"></stop>
    </linearGradient>
    <linearGradient id="glowD" x1="18" y1="64" x2="110" y2="64" gradientUnits="userSpaceOnUse">
      <stop offset="0%" stop-color="#6C63FF" stop-opacity="0"></stop>
      <stop offset="50%" stop-color="#FF6BA8" stop-opacity="0.15"></stop>
      <stop offset="100%" stop-color="#6C63FF" stop-opacity="0"></stop>
    </linearGradient>
  </defs>

  <rect width="128" height="128" rx="22" fill="url(#bgD)"></rect>

  <rect x="18" y="50" width="92" height="28" fill="url(#glowD)" rx="4"></rect>

  <polyline points="18,64 30,64 36,44 42,84 50,44 58,84 64,64 70,64 76,44 82,84 88,64 98,64 110,64" fill="none" stroke="url(#accentD)" stroke-width="2.8" stroke-linecap="round" stroke-linejoin="round"></polyline>

  <circle cx="18" cy="64" r="3" fill="#6C63FF" fill-opacity="0.6"></circle>
  <circle cx="110" cy="64" r="3" fill="#6C63FF" fill-opacity="0.6"></circle>

  <rect x="14" y="14" width="8" height="8" rx="2" fill="none" stroke="url(#accentD)" stroke-width="1.2" stroke-opacity="0.3"></rect>
  <rect x="106" y="106" width="8" height="8" rx="2" fill="none" stroke="url(#accentD)" stroke-width="1.2" stroke-opacity="0.3"></rect>
</svg>
